:FULLY-SPECIFIED
:FORCE-ALL-JOINTS-BE-3DOF
:DEGREES
918
root -0.270496 14.1294 -36.3503 372.169 -31.4481 345.167
lfemur -59.5933 29.6024 1.45845
ltibia 67.133 0 0
lfoot -5.16097 -6.51461 0
ltoes -10.0311 0 0
rfemur 1.66823 -8.04763 13.0652
rtibia 43.3306 0 0
rfoot -23.3658 -28.5631 0
rtoes -25.3297 0 0
lowerback 11.7139 0.673262 5.27585
upperback -1.47308 1.98572 4.75534
thorax -8.17752 0.826349 1.73019
lowerneck -3.98322 8.00471 2.33232
upperneck 4.54926 10.5981 -0.991395
head 2.31887 5.29546 -0.35055
lclavicle 2.75635e-14 -2.33411e-15 0
lhumerus 11.7473 -3.05393 66.7041
lradius 26.1312 0 0
lwrist -28.2307 0 0
lhand -28.8264 30.7059 0
lfingers 7.12502 0 0
lthumb -2.18341 60.6147 0
rclavicle 2.75635e-14 -2.33411e-15 0
rhumerus -70.4417 23.6397 -93.3412
rradius 108.713 0 0
rwrist -64.6017 0 0
rhand -11.0151 -24.5632 0
rfingers 7.12502 0 0
rthumb 15.0057 -53.9964 0
919
root -0.254345 14.1195 -36.3399 372.176 -31.0723 344.982
lfemur -60.144 29.8412 1.22518
ltibia 67.5753 0 0
lfoot -5.36556 -6.85423 0
ltoes -9.75776 0 0
rfemur 2.07309 -8.10286 13.1049
rtibia 42.9373 0 0
rfoot -23.2928 -28.592 0
rtoes -25.5851 0 0
lowerback 11.6828 0.586111 5.43841
upperback -1.46781 1.89872 4.88961
thorax -8.15551 0.779797 1.79935
lowerneck -3.96622 8.00261 2.3948
upperneck 4.55098 10.5938 -1.02297
head 2.3212 5.29346 -0.371074
lclavicle 2.25263e-14 -9.76319e-16 0
lhumerus 11.736 -3.39018 67.2614
lradius 25.6042 0 0
lwrist -28.0519 0 0
lhand -28.4048 30.465 0
lfingers 7.12502 0 0
lthumb -1.77633 60.3802 0
rclavicle 2.25263e-14 -9.76319e-16 0
rhumerus -70.7502 23.5068 -93.4314
rradius 108.727 0 0
rwrist -64.7336 0 0
rhand -10.9832 -24.6276 0
rfingers 7.12502 0 0
rthumb 15.0365 -54.0587 0
920
root -0.238193 14.1096 -36.3296 372.179 -30.6433 344.779
lfemur -60.7335 30.1 0.981091
ltibia 68.0356 0 0
lfoot -5.58785 -7.23466 0
ltoes -9.47586 0 0
rfemur 2.53597 -8.15503 13.14
rtibia 42.4949 0 0
rfoot -23.2104 -28.6246 0
rtoes -25.8589 0 0
lowerback 11.6439 0.493048 5.61367
upperback -1.46332 1.80602 5.03434
thorax -8.13003 0.730177 1.87378
lowerneck -3.94908 7.9966 2.45918
upperneck 4.55576 10.584 -1.04966
head 2.32387 5.28882 -0.390536
lclavicle 1.71841e-14 4.87478e-16 0
lhumerus 11.6496 -3.71676 67.896
lradius 24.965 0 0
lwrist -27.8982 0 0
lhand -27.9671 30.2073 0
lfingers 7.12502 0 0
lthumb -1.3537 60.1294 0
rclavicle 1.71841e-14 4.87478e-16 0
rhumerus -71.1841 23.3349 -93.5818
rradius 108.772 0 0
rwrist -64.9342 0 0
rhand -10.9533 -24.6856 0
rfingers 7.12502 0 0
rthumb 15.0653 -54.1147 0
921
root -0.222042 14.0997 -36.3193 372.18 -30.1584 344.558
lfemur -61.3631 30.3794 0.725956
ltibia 68.5142 0 0
lfoot -5.82857 -7.65791 0
ltoes -9.18541 0 0
rfemur 3.05987 -8.20382 13.1701
rtibia 42.0009 0 0
rfoot -23.1181 -28.6609 0
rtoes -26.152 0 0
lowerback 11.5969 0.393869 5.80215
upperback -1.45967 1.70741 5.18993
thorax -8.10091 0.677385 1.95368
lowerneck -3.93182 7.98642 2.52546
upperneck 4.56379 10.5684 -1.07108
head 2.32689 5.28136 -0.408821
lclavicle 1.15274e-14 2.06142e-15 0
lhumerus 11.4832 -4.03228 68.6118
lradius 24.2072 0 0
lwrist -27.7717 0 0
lhand -27.5132 29.9323 0
lfingers 7.12502 0 0
lthumb -0.915369 59.8617 0
rclavicle 1.15274e-14 2.06142e-15 0
rhumerus -71.7511 23.1216 -93.7962
rradius 108.85 0 0
rwrist -65.2079 0 0
rhand -10.9256 -24.7366 0
rfingers 7.12502 0 0
rthumb 15.092 -54.1641 0
922
root -0.205891 14.0898 -36.3089 372.177 -29.6148 344.318
lfemur -62.0344 30.6804 0.459559
ltibia 69.0113 0 0
lfoot -6.08846 -8.12595 0
ltoes -8.88643 0 0
rfemur 3.64779 -8.24891 13.1948
rtibia 41.4529 0 0
rfoot -23.0153 -28.7011 0
rtoes -26.465 0 0
lowerback 11.5412 0.288368 6.00434
upperback -1.45692 1.60272 5.3568
thorax -8.06797 0.621317 2.03924
lowerneck -3.91447 7.9718 2.59364
upperneck 4.57528 10.5466 -1.08683
head 2.33028 5.27092 -0.425814
lclavicle 5.54683e-15 3.74965e-15 0
lhumerus 11.2316 -4.33537 69.4127
lradius 23.3245 0 0
lwrist -27.6745 0 0
lhand -27.0429 29.6392 0
lfingers 7.12502 0 0
lthumb -0.461183 59.5766 0
rclavicle 5.54683e-15 3.74965e-15 0
rhumerus -72.4588 22.8646 -94.0786
rradius 108.965 0 0
rwrist -65.5591 0 0
rhand -10.9004 -24.7802 0
rfingers 7.12502 0 0
rthumb 15.1163 -54.2061 0
923
root -0.189739 14.0799 -36.2986 372.171 -29.0098 344.058
lfemur -62.7487 31.0037 0.181683
ltibia 69.5271 0 0
lfoot -6.36827 -8.64079 0
ltoes -8.57895 0 0
rfemur 4.30274 -8.28997 13.2138
rtibia 40.8486 0 0
rfoot -22.9016 -28.7455 0
rtoes -26.7986 0 0
lowerback 11.4765 0.176337 6.22073
upperback -1.45514 1.49175 5.53534
thorax -8.03101 0.561868 2.13066
lowerneck -3.89706 7.9525 2.66369
upperneck 4.59043 10.5183 -1.09651
head 2.33406 5.25732 -0.441399
lclavicle -7.67166e-16 5.55632e-15 0
lhumerus 10.89 -4.62466 70.3028
lradius 22.3106 0 0
lwrist -27.6087 0 0
lhand -26.556 29.3276 0
lfingers 7.12502 0 0
lthumb 0.00901497 59.2734 0
rclavicle -7.67166e-16 5.55632e-15 0
rhumerus -73.315 22.5616 -94.4328
rradius 109.116 0 0
rwrist -65.992 0 0
rhand -10.8779 -24.8157 0
rfingers 7.12502 0 0
rthumb 15.138 -54.2404 0
924
root -0.173588 14.07 -36.2883 372.16 -28.3407 343.778
lfemur -63.5073 31.3501 -0.107891
ltibia 70.062 0 0
lfoot -6.66873 -9.20442 0
ltoes -8.26298 0 0
rfemur 5.0277 -8.32669 13.2266
rtibia 40.1854 0 0
rfoot -22.7766 -28.7941 0
rtoes -27.1536 0 0
lowerback 11.4022 0.0575709 6.45182
upperback -1.45439 1.3743 5.72597
thorax -7.98986 0.498935 2.22815
lowerneck -3.87962 7.92824 2.73562
upperneck 4.60944 10.483 -1.09972
head 2.33825 5.2404 -0.455461
lclavicle -7.42403e-15 7.48555e-15 0
lhumerus 10.4532 -4.89877 71.286
lradius 21.159 0 0
lwrist -27.5762 0 0
lhand -26.0523 28.9968 0
lfingers 7.12502 0 0
lthumb 0.495382 58.9515 0
rclavicle -7.42403e-15 7.48555e-15 0
rhumerus -74.3274 22.2102 -94.8625
rradius 109.308 0 0
rwrist -66.5109 0 0
rhand -10.8582 -24.8426 0
rfingers 7.12502 0 0
rthumb 15.157 -54.2663 0
925
root -0.157436 14.0601 -36.2779 372.146 -27.6047 343.476
lfemur -64.3118 31.7205 -0.409381
ltibia 70.616 0 0
lfoot -6.99058 -9.81883 0
ltoes -7.93854 0 0
rfemur 5.82568 -8.35873 13.2329
rtibia 39.4609 0 0
rfoot -22.6397 -28.8473 0
rtoes -27.5304 0 0
lowerback 11.318 -0.0681364 6.6981
upperback -1.45473 1.25018 5.9291
thorax -7.94432 0.432413 2.33192
lowerneck -3.86216 7.89879 2.80942
upperneck 4.6325 10.4405 -1.09609
head 2.34286 5.21997 -0.467885
lclavicle -1.44332e-14 9.5415e-15 0
lhumerus 9.91645 -5.15633 72.3662
lradius 19.8635 0 0
lwrist -27.5793 0 0
lhand -25.5317 28.6462 0
lfingers 7.12502 0 0
lthumb 0.998075 58.6104 0
rclavicle -1.44332e-14 9.5415e-15 0
rhumerus -75.5037 21.8081 -95.3716
rradius 109.541 0 0
rwrist -67.1202 0 0
rhand -10.8416 -24.8603 0
rfingers 7.12502 0 0
rthumb 15.173 -54.2833 0
926
root -0.141285 14.0502 -36.2676 372.127 -26.7991 343.152
lfemur -65.1634 32.1157 -0.723004
ltibia 71.1896 0 0
lfoot -7.33457 -10.486 0
ltoes -7.60565 0 0
rfemur 6.69969 -8.38578 13.2323
rtibia 38.6728 0 0
rfoot -22.4905 -28.905 0
rtoes -27.93 0 0
lowerback 11.2233 -0.200991 6.96009
upperback -1.45622 1.1192 6.14513
thorax -7.89423 0.362198 2.44215
lowerneck -3.84473 7.86387 2.88507
upperneck 4.65982 10.3903 -1.0852
head 2.34792 5.19586 -0.478554
lclavicle -2.18042e-14 1.17283e-14 0
lhumerus 9.2746 -5.39596 73.5474
lradius 18.4177 0 0
lwrist -27.6199 0 0
lhand -24.9941 28.2752 0
lfingers 7.12502 0 0
lthumb 1.51725 58.2495 0
rclavicle -2.18042e-14 1.17283e-14 0
rhumerus -76.8516 21.353 -95.9639
rradius 109.818 0 0
rwrist -67.8241 0 0
rhand -10.8283 -24.8682 0
rfingers 7.12502 0 0
rthumb 15.1859 -54.2909 0
927
root -0.132759 14.0432 -36.2565 372.136 -26.7639 343.114
lfemur -65.3046 32.1935 -0.797946
ltibia 71.3517 0 0
lfoot -7.39253 -10.5307 0
ltoes -7.53079 0 0
rfemur 6.76011 -8.41779 13.2004
rtibia 38.6171 0 0
rfoot -22.485 -28.8805 0
rtoes -28.0192 0 0
lowerback 11.2048 -0.221937 6.98521
upperback -1.45331 1.09539 6.19031
thorax -7.88117 0.350543 2.48121
lowerneck -3.84274 7.87026 2.90928
upperneck 4.68627 10.3985 -1.10051
head 2.3592 5.19995 -0.486227
lclavicle -2.07205e-14 1.18702e-14 0
lhumerus 9.97022 -6.24018 73.1745
lradius 19.0036 0 0
lwrist -26.9573 0 0
lhand -24.9252 28.3018 0
lfingers 7.12502 0 0
lthumb 1.58376 58.2774 0
rclavicle -2.07205e-14 1.18702e-14 0
rhumerus -76.8553 21.3357 -95.9424
rradius 109.831 0 0
rwrist -67.7665 0 0
rhand -10.8107 -24.8994 0
rfingers 7.12502 0 0
rthumb 15.2028 -54.3208 0
